<svg width="133" height="40" viewBox="0 0 133 40" fill="none" xmlns="http://www.w3.org/2000/svg">
<path d="M121.945 20.4225C122.114 20.3099 124.504 19.6244 125.677 19.2958C126.072 19.1847 126.217 19.4373 126.241 19.5775V31.1268C126.241 32.1127 127.368 32.3239 127.438 32.3239C127.508 32.3239 128.283 32.3944 128.283 32.8873C128.283 33.2817 128.001 33.3803 127.861 33.3803H122.156C121.523 33.3803 121.382 33.169 121.382 32.8169C121.382 32.4648 121.804 32.4648 122.649 32.1831C123.325 31.9577 123.541 31.1972 123.565 30.8451V23.169C123.565 22.8873 123.494 22.3239 123.283 22.0423C123.072 21.7606 122.297 21.4789 121.875 21.2676C121.452 21.0563 121.734 20.5634 121.945 20.4225Z" fill="#F8451A"/>
<path d="M95.4662 20.493C95.6916 20.3803 97.6728 19.6948 98.6352 19.3662C99.5366 19.1408 99.8559 19.4601 99.9028 19.6479V21.4084C100.584 20.5634 102.508 18.9014 104.762 19.0141C107.016 19.1268 108.33 20.6573 108.706 21.4084C109.621 20.3521 112.016 19.0141 113.635 19.0141C115.255 19.0141 115.959 19.5775 116.875 20.7746C117.607 21.7324 117.743 22.9108 117.72 23.3803V31.338C117.72 31.9014 118.354 32.3944 118.917 32.3944C119.48 32.3944 119.762 32.6761 119.762 32.9577C119.762 33.1831 119.527 33.3333 119.41 33.3803H113.847C113.213 33.3803 112.931 33.3803 112.931 32.9577C112.931 32.5352 113.354 32.5352 114.058 32.2535C114.621 32.0282 114.762 31.4554 114.762 31.1972V23.169C114.762 22.3239 113.847 21.6197 113.213 21.4084C112.579 21.1972 111.523 21.2676 110.466 21.6197C109.621 21.9014 108.987 22.6761 108.776 23.0282V31.0563C108.776 31.9014 109.551 32.5352 109.973 32.5352C110.396 32.5352 110.677 32.6761 110.677 32.9577C110.677 33.1831 110.443 33.3333 110.325 33.3803H104.551C104.128 33.3803 103.987 33.3803 103.987 32.9577C103.987 32.5352 104.41 32.5352 105.185 32.2535C105.804 32.0282 105.912 31.2676 105.889 30.9155V23.3803C105.889 22.9577 105.748 22.2535 104.973 21.6197C104.199 20.9859 102.861 21.1972 101.945 21.4084C101.213 21.5775 100.278 22.5587 99.9028 23.0282V31.338C99.9028 31.9014 100.537 32.2535 101.03 32.3944C101.523 32.5352 101.734 32.5352 101.734 32.9577C101.734 33.2958 101.499 33.3803 101.382 33.3803H95.6071C95.1845 33.3803 95.0437 33.3803 94.9733 32.9577C94.9028 32.5352 95.1141 32.6056 96.1704 32.2535C97.0155 31.9718 97.1798 31.0563 97.1564 30.6338V23.3803C97.1564 21.7606 96.3817 21.6901 95.6071 21.4084C94.8324 21.1268 95.1845 20.6338 95.4662 20.493Z" fill="#F8451A"/>
<path d="M78.8465 19.507H85.3254C85.6071 19.507 85.6775 19.6479 85.6775 19.9296C85.6775 20.2113 85.3254 20.2817 84.8324 20.2817C84.3395 20.2817 83.8465 20.8451 83.8465 21.1268C83.8465 21.3521 84.1282 22.3474 84.269 22.8169C85.0906 25.0704 86.7761 29.6901 86.9451 30.1408C87.1564 30.7042 87.5085 30.4225 87.5789 30.2817C87.6493 30.1408 88.7761 27.1127 88.9874 26.6197C89.1986 26.1268 90.3958 22.3944 90.6071 21.5493C90.8183 20.7042 89.9028 20.4225 89.6211 20.3521C89.3395 20.2817 89.0578 20.2817 88.9874 19.9296C88.931 19.6479 89.1986 19.5305 89.3395 19.507H94.0578C94.5507 19.507 94.6211 20.2817 93.9169 20.2817C93.2127 20.2817 92.4381 21.338 92.2268 21.7606C92.0155 22.1831 89.762 27.6761 89.5507 28.169C89.3395 28.662 86.2409 36.338 85.255 37.8169C84.269 39.2958 82.8606 39.9296 81.593 39.9296C80.3254 39.9296 79.6916 39.1549 79.6211 38.2394C79.5507 37.3239 80.5366 37.0423 80.8888 37.0423C81.2409 37.0423 82.7902 37.6761 83.7057 37.1831C84.6212 36.6901 84.9733 35.8451 85.4662 35C85.8606 34.3239 85.6305 33.5446 85.4662 33.2394L83.9874 29.5775C83.0719 27.3944 81.1986 22.9296 81.0296 22.5352C80.8183 22.0423 80.4662 21.4789 80.1141 20.9859C79.762 20.493 79.1986 20.5634 78.7057 20.2113C78.3113 19.9296 78.6352 19.6244 78.8465 19.507Z" fill="#F8451A"/>
<path fill-rule="evenodd" clip-rule="evenodd" d="M72.1564 19.0845C71.3113 19.0376 69.3113 19.2254 68.0719 20.3521C66.5226 21.7606 65.6071 23.8732 67.5085 24.1549C69.1449 24.3974 69.2686 22.6577 69.3162 21.9885C69.3239 21.8801 69.3296 21.7998 69.3395 21.7606C69.4099 21.4789 69.762 20.0704 71.1704 20.1408C72.5789 20.2113 73.7761 20.7746 73.9874 22.0423C74.1564 23.0563 74.1047 24.3897 74.0578 24.9296C71.4287 25.6103 66.1141 27.4789 65.8888 29.507C65.6071 32.0423 66.8043 33.8028 69.1986 33.8028C71.593 33.8028 73.7761 32.0423 74.0578 31.6197C74.1986 32.3474 74.8042 33.8028 76.1 33.8028C77.7197 33.8028 78.8465 32.8169 79.0578 32.6056C79.269 32.3944 79.3395 31.6901 78.6352 31.831C77.931 31.9718 76.9451 31.831 76.9451 31.1972V22.5352C76.7808 21.2911 75.593 18.8592 72.1564 19.0845ZM74.0578 25.9859C72.5789 26.3146 69.4662 27.3662 68.8465 28.9437C68.0719 30.9155 69.8324 31.831 70.8888 31.831C71.9451 31.831 73.8465 30.7042 74.0578 30V25.9859Z" fill="#F8451A"/>
<path d="M59.4099 16.1268V19.4366H63.5648C63.7291 19.4366 64.0578 19.5775 64.0578 20.1408C64.0578 20.7042 63.7291 20.8451 63.5648 20.8451H59.4099C59.3864 23.3333 59.3395 28.5775 59.3395 29.6479C59.3395 30.9859 60.3254 31.6197 60.5366 31.6901C60.7479 31.7606 62.4381 32.2535 63.424 31.6197C64.4099 30.9859 64.4099 31.6197 64.4099 31.6901C64.4099 31.7606 63.3535 34.0141 59.9028 33.8028C57.1423 33.6338 56.4991 31.0094 56.5226 29.7183V20.8451H55.255C54.9733 20.8451 54.5507 20.6338 54.6916 20.3521C54.8324 20.0704 55.9592 19.0141 56.8043 18.5211C57.6493 18.0282 58.424 15.9155 58.9169 15.9155C59.3113 15.9155 59.4099 16.0563 59.4099 16.1268Z" fill="#F8451A"/>
<path d="M52.0859 20.0704V23.169C52.0859 23.2394 52.0014 23.3803 51.6634 23.3803C51.2409 23.3803 51.1704 22.8873 50.8888 22.3239C50.6071 21.7606 49.8324 20.3521 47.6493 20.2817C45.4662 20.2113 45.1141 21.831 45.1845 22.8873C45.255 23.9437 46.8747 24.6479 49.1986 25.2817C51.5226 25.9155 52.5789 27.5352 52.7197 28.0986C52.8606 28.662 52.8606 30.4225 52.4381 31.0563C52.0155 31.6901 50.5366 33.7324 47.3676 33.8028C44.8324 33.8592 43.0249 33.0751 42.4381 32.6761V30.4225C42.3911 29.9531 42.424 29.0141 42.931 29.0141C43.5648 29.0141 43.5648 29.6479 43.9874 30.7042C44.4099 31.7606 45.8183 32.6761 47.3676 32.6761C48.9169 32.6761 50.255 31.5493 50.255 30.0704C50.255 28.5915 48.424 28.0282 47.0155 27.5352C45.6071 27.0423 42.6493 26.4085 42.7197 23.3803C42.7902 20.3521 45.255 19.1549 48.0719 19.0845C50.3254 19.0282 51.6869 19.7183 52.0859 20.0704Z" fill="#F8451A"/>
<path d="M126.734 14.7887C126.734 15.9555 125.788 16.9014 124.621 16.9014C123.454 16.9014 122.508 15.9555 122.508 14.7887C122.508 13.6219 123.454 12.6761 124.621 12.6761C125.788 12.6761 126.734 13.6219 126.734 14.7887Z" fill="#F8451A"/>
<path d="M12.6202 21.799C13.7657 20.7814 16.9704 20.7458 18.4295 20.8553C17.0385 18.8037 16.7522 15.5622 17.734 12.69C18.7159 9.81784 21.5387 8.17659 22.1933 7.88937C22.8478 7.60215 23.7479 7.31493 23.8297 6.90462C23.9115 6.4943 21.0069 5.67368 17.6522 7.31493C14.2975 8.95618 12.0475 12.649 11.7611 16.1367C11.532 18.9268 12.2384 21.0741 12.6202 21.799Z" fill="#F8451A"/>
<path d="M32.9118 25.8611H24.7297L24.607 25.6149C24.5252 25.4508 24.157 25.0404 22.8478 23.6454C21.8005 22.5293 19.9023 22.2503 19.0841 22.2503H14.9521C13.5612 22.2503 12.2111 23.3171 11.4747 24.2198C10.7383 25.1225 10.2474 26.1483 10.2474 26.6407C10.2474 27.0346 10.5474 27.2151 10.6974 27.2561H33.3618L34.221 27.7075V23.0709C34.2482 22.8795 34.1637 22.4965 33.6073 22.4965C33.0509 22.4965 32.9118 22.8795 32.9118 23.0709V25.8611Z" fill="#F8451A"/>
<path d="M6.60637 19.8705H8.81554C9.20828 19.8705 9.33374 20.1714 9.34737 20.3218V28.0768C9.34737 28.3394 9.56556 28.4597 9.67466 28.4871H33.4846C34.1064 28.4871 34.2346 28.87 34.221 29.0615V33.2467C34.221 33.575 33.9755 33.657 33.8528 33.657H31.7663C31.4718 33.657 31.3436 33.3835 31.3163 33.2467V31.8516C31.3163 31.589 31.0163 31.4687 30.8663 31.4413H9.67466C9.41283 31.4413 9.34737 31.6875 9.34737 31.8106V33.1236C9.34737 33.5503 9.04736 33.657 8.89736 33.657H6.77001C6.31181 33.657 6.19727 33.3014 6.19727 33.1236V20.3218C6.19727 20.0264 6.47 19.8979 6.60637 19.8705Z" fill="#F8451A"/>
<path d="M29.8026 22.2503C29.8026 23.7686 28.5571 24.9994 27.0207 24.9994C25.4843 24.9994 24.2388 23.7686 24.2388 22.2503C24.2388 20.732 25.4843 19.5012 27.0207 19.5012C28.5571 19.5012 29.8026 20.732 29.8026 22.2503Z" fill="#F8451A"/>
</svg>
